<?xml version="1.0" standalone="no"?>
<!DOCTYPE svg PUBLIC "-//W3C//DTD SVG 20010904//EN"
 "http://www.w3.org/TR/2001/REC-SVG-20010904/DTD/svg10.dtd">
<svg version="1.0" xmlns="http://www.w3.org/2000/svg"
 width="228.000000pt" height="88.000000pt" viewBox="0 0 228.000000 88.000000"
 preserveAspectRatio="xMidYMid meet">

<g transform="translate(0.000000,88.000000) scale(0.100000,-0.100000)"
fill="#000000" stroke="none">
<path d="M2122 798 c-32 -46 -87 -125 -122 -175 l-64 -93 -78 0 c-43 0 -78 4
-78 8 0 5 18 34 41 65 39 56 40 57 16 57 -18 0 -32 -12 -52 -42 -44 -68 -66
-88 -97 -88 -32 0 -40 -27 -9 -32 16 -2 6 -21 -60 -113 -129 -179 -260 -292
-314 -271 -23 8 -18 44 11 81 14 18 61 61 105 95 44 34 78 67 76 74 -2 6 -28
14 -58 18 -98 14 -99 14 -87 47 16 40 4 63 -29 59 -37 -4 -63 -49 -45 -78 11
-18 8 -27 -20 -68 -51 -74 -171 -190 -219 -212 -122 -55 -103 10 60 203 39 46
71 87 71 90 0 9 -44 -5 -60 -19 -13 -11 -18 -10 -29 8 -11 18 -20 20 -74 16
-76 -5 -125 -28 -182 -84 -82 -82 -121 -207 -78 -249 24 -25 93 -15 138 19 31
24 35 25 35 9 0 -11 5 -24 12 -31 17 -17 84 -15 121 4 66 34 174 140 252 247
20 27 21 27 78 16 l57 -12 -28 -21 c-93 -68 -162 -150 -162 -192 0 -64 95 -72
176 -16 l44 32 0 -25 c0 -46 79 -61 138 -25 32 20 43 15 20 -9 -11 -11 -8 -12
16 -7 17 4 46 27 70 54 70 83 200 208 244 236 56 35 106 33 110 -4 2 -19 -12
-44 -55 -95 -81 -96 -93 -116 -93 -145 0 -36 18 -50 62 -50 68 0 145 51 229
152 33 38 39 52 29 58 -10 6 -36 -14 -89 -69 -77 -79 -134 -115 -174 -109 -39
5 -29 32 48 123 80 95 93 122 79 163 -21 61 -103 51 -206 -25 -34 -25 -58 -40
-52 -32 6 8 66 93 134 189 68 96 152 214 186 263 60 81 62 87 40 87 -19 0 -38
-18 -84 -82z m-227 -325 c-145 -224 -284 -363 -364 -363 -55 0 -21 66 158 312
l56 77 84 1 83 0 -17 -27z m-837 -101 c8 -57 -198 -262 -264 -262 -58 0 -34
105 43 190 58 64 124 100 178 97 33 -2 41 -6 43 -25z"/>
<path d="M451 770 c-226 -60 -383 -245 -295 -349 23 -28 32 -31 80 -31 34 0
69 7 92 19 50 25 114 96 147 161 31 60 39 135 15 135 -10 0 -17 -14 -21 -40
-16 -116 -138 -245 -232 -245 -61 0 -87 63 -53 128 41 79 192 175 314 201 84
18 246 11 268 -12 3 -3 -23 -31 -57 -63 -34 -33 -99 -105 -144 -161 -61 -76
-85 -99 -94 -90 -18 18 -13 37 14 47 14 5 25 14 25 20 0 18 -49 11 -70 -10
-26 -26 -25 -48 1 -77 l22 -22 -58 -71 c-63 -77 -144 -154 -185 -175 -41 -21
-95 -28 -119 -15 l-22 11 23 19 c19 15 21 22 12 37 -16 25 -37 27 -64 5 -21
-17 -23 -23 -14 -53 18 -63 110 -79 200 -34 49 25 150 120 221 208 l38 48 90
3 c104 2 158 22 224 82 82 73 107 175 62 247 -11 19 -21 37 -21 40 0 3 16 11
35 17 19 6 35 16 35 21 0 19 -30 20 -72 2 -41 -18 -45 -18 -93 -1 -69 24 -208
23 -304 -2z m391 -100 c24 -46 23 -86 -5 -135 -27 -48 -106 -109 -166 -130
-51 -17 -127 -20 -136 -5 -15 24 250 317 278 307 5 -1 18 -19 29 -37z"/>
</g>
</svg>
